<svg xmlns="http://www.w3.org/2000/svg" viewBox="0 0 424.37 58.71"><defs><style>.cls-1{fill:#fff;}.cls-2{fill:red;}</style></defs><g id="Capa_2" data-name="Capa 2"><g id="menu"><g id="ARTSAN_LOGO" data-name="ARTSAN LOGO"><path id="Trazado_2" data-name="Trazado 2" class="cls-1" d="M60.11,1.07h16c8.87,0,13.46,1.22,16.44,3.28,4.66,3.06,7.49,9,7.49,15.29A19,19,0,0,1,96.8,30.42c-2.91,4-6.57,5.43-10.93,6.19l13.3,21H89.61L74.1,32.1h2c3.9,0,8.64-.15,11.32-2.44a12,12,0,0,0,3.9-9.25,11.59,11.59,0,0,0-4.82-9.56C84,9.33,80.9,9,76.85,9H69.13V57.64h-9Z"/><path id="Trazado_3" data-name="Trazado 3" class="cls-1" d="M115.17,9h-13V1.07h35V9h-13V57.64h-9Z"/><path id="Trazado_4" data-name="Trazado 4" class="cls-1" d="M149.36,40.89c.61,8.49,6.57,10.17,9.55,10.17a9.26,9.26,0,0,0,9.4-9c0-6.27-5.34-7.73-12.6-10.4-4.44-1.46-14.3-4.74-14.3-15.36S150.35,0,159.22,0c7.26,0,16.36,4,17.05,15.59H167.4c-.61-3.05-2-7.95-8.49-7.95-4.58,0-8.55,3.14-8.55,8,0,5.51,4.2,6.88,13.3,10.25,7,3,13.6,6.57,13.6,15.74S171.07,58.71,159,58.71c-11.24,0-18.42-6.88-18.57-17.81Z"/><path id="Trazado_5" data-name="Trazado 5" class="cls-1" d="M278.52,44.1l-.16-43h8.71V57.64h-8.25L249.24,14.52l.15,43.12h-8.71V1.07h8.48Z"/><path id="Trazado_6" data-name="Trazado 6" class="cls-1" d="M359.59,40.44c-3.52,10.32-14,18.27-26.82,18.27A29.35,29.35,0,0,1,331.85,0h.83a28.76,28.76,0,0,1,27,18.57h-9.56A20,20,0,0,0,332.61,8c-12,0-20.41,9.86-20.41,21.34,0,11.76,8.56,21.47,20.48,21.47,10.93,0,16.21-8.26,17.43-10.31Z"/><path id="Trazado_7" data-name="Trazado 7" class="cls-1" d="M365.13,29.66C365.13,11.85,378.81,0,394.71,0c16.9,0,29.66,13.07,29.66,29.35S411.6,58.71,394.63,58.71a29,29,0,0,1-29.5-28.54v-.51Zm8.94-.31c0,11.77,8.71,21.41,20.79,21.41,12.31,0,20.49-10.32,20.49-21.33S407.17,8,394.79,8s-20.72,9.93-20.72,21.33Z"/><path id="Trazado_8" data-name="Trazado 8" class="cls-1" d="M211.75,1.07h-8.17L180.34,57.63h9.78l5.2-13.37L197.77,37l9.55-25.46L217,37l2.44,7.26,2.45,6.11h-18.8l-2.45,7.26h33.94Z"/><path id="Trazado_9" data-name="Trazado 9" class="cls-1" d="M31.42,1.07H23.24L0,57.63H9.78L15,44.26,17.43,37,27,11.54,36.69,37l2.45,7.26,2.44,6.11H22.78l-2.44,7.26H54.27Z"/><circle id="Elipse_1" data-name="Elipse 1" class="cls-2" cx="298.04" cy="52.66" r="4.75"/></g></g></g></svg>